<svg width="149" height="40" viewBox="0 0 149 40" fill="none" xmlns="http://www.w3.org/2000/svg">
<path fill-rule="evenodd" clip-rule="evenodd" d="M7.5 10C7.5 8.61929 8.61929 7.5 10 7.5H13.75C15.1307 7.5 16.25 8.61929 16.25 10V30C16.25 31.3807 15.1307 32.5 13.75 32.5H10C8.61929 32.5 7.5 31.3807 7.5 30V10ZM13.75 10H10V30H13.75V10Z" fill="#ECA757"/>
<path fill-rule="evenodd" clip-rule="evenodd" d="M23.75 10C23.75 8.61929 24.8693 7.5 26.25 7.5H30C31.3807 7.5 32.5 8.61929 32.5 10V30C32.5 31.3807 31.3807 32.5 30 32.5H26.25C24.8693 32.5 23.75 31.3807 23.75 30V10ZM30 10H26.25V30H30V10Z" fill="#ECA757"/>
<path fill-rule="evenodd" clip-rule="evenodd" d="M30 12.5C30 11.8096 30.5596 11.25 31.25 11.25H35C35.663 11.25 36.2989 11.5134 36.7678 11.9822C37.2366 12.4511 37.5 13.087 37.5 13.75V26.25C37.5 26.913 37.2366 27.5489 36.7678 28.0178C36.2989 28.4866 35.663 28.75 35 28.75H31.25C30.5596 28.75 30 28.1904 30 27.5C30 26.8096 30.5596 26.25 31.25 26.25H35L35 13.75L31.25 13.75C30.5596 13.75 30 13.1904 30 12.5Z" fill="#ECA757"/>
<path fill-rule="evenodd" clip-rule="evenodd" d="M3.23223 11.9822C3.70107 11.5134 4.33696 11.25 5 11.25H8.75C9.44036 11.25 10 11.8096 10 12.5C10 13.1904 9.44036 13.75 8.75 13.75L5 13.75V26.25H8.75C9.44036 26.25 10 26.8096 10 27.5C10 28.1904 9.44036 28.75 8.75 28.75H5C4.33696 28.75 3.70108 28.4866 3.23223 28.0178C2.76339 27.5489 2.5 26.913 2.5 26.25V13.75C2.5 13.087 2.76339 12.4511 3.23223 11.9822Z" fill="#ECA757"/>
<path fill-rule="evenodd" clip-rule="evenodd" d="M13.75 20C13.75 19.3096 14.3096 18.75 15 18.75H25C25.6904 18.75 26.25 19.3096 26.25 20C26.25 20.6904 25.6904 21.25 25 21.25H15C14.3096 21.25 13.75 20.6904 13.75 20Z" fill="#ECA757"/>
<path fill-rule="evenodd" clip-rule="evenodd" d="M35 20C35 19.3096 35.5596 18.75 36.25 18.75H38.75C39.4404 18.75 40 19.3096 40 20C40 20.6904 39.4404 21.25 38.75 21.25H36.25C35.5596 21.25 35 20.6904 35 20Z" fill="#ECA757"/>
<path fill-rule="evenodd" clip-rule="evenodd" d="M0 20C0 19.3096 0.559644 18.75 1.25 18.75H3.75C4.44036 18.75 5 19.3096 5 20C5 20.6904 4.44036 21.25 3.75 21.25H1.25C0.559644 21.25 0 20.6904 0 20Z" fill="#ECA757"/>
<path d="M69.7109 19.0957V26.9844C69.401 27.3581 68.9225 27.7637 68.2754 28.2012C67.6283 28.6296 66.7943 28.9987 65.7734 29.3086C64.7526 29.6185 63.5176 29.7734 62.0684 29.7734C60.7832 29.7734 59.612 29.5638 58.5547 29.1445C57.4974 28.7161 56.5859 28.0918 55.8203 27.2715C55.0638 26.4512 54.4805 25.4486 54.0703 24.2637C53.6602 23.0697 53.4551 21.707 53.4551 20.1758V18.9316C53.4551 17.4004 53.651 16.0378 54.043 14.8438C54.444 13.6497 55.0137 12.6426 55.752 11.8223C56.4902 11.002 57.3698 10.3776 58.3906 9.94922C59.4115 9.52083 60.5462 9.30664 61.7949 9.30664C63.5267 9.30664 64.9486 9.58919 66.0605 10.1543C67.1725 10.7103 68.0202 11.485 68.6035 12.4785C69.196 13.4629 69.5605 14.5931 69.6973 15.8691H65.7188C65.6185 15.1947 65.4271 14.6068 65.1445 14.1055C64.862 13.6042 64.4564 13.2122 63.9277 12.9297C63.4082 12.6471 62.7337 12.5059 61.9043 12.5059C61.2207 12.5059 60.61 12.6471 60.0723 12.9297C59.5436 13.2031 59.097 13.6087 58.7324 14.1465C58.3678 14.6842 58.0898 15.3496 57.8984 16.1426C57.707 16.9355 57.6113 17.8561 57.6113 18.9043V20.1758C57.6113 21.2148 57.7116 22.1354 57.9121 22.9375C58.1126 23.7305 58.4089 24.4004 58.8008 24.9473C59.2018 25.485 59.694 25.8906 60.2773 26.1641C60.8607 26.4375 61.5397 26.5742 62.3145 26.5742C62.9616 26.5742 63.4993 26.5195 63.9277 26.4102C64.3652 26.3008 64.7161 26.1686 64.9805 26.0137C65.2539 25.8496 65.4635 25.6947 65.6094 25.5488V22.0215H61.8633V19.0957H69.7109ZM77.1621 27.832L81.0859 14.707H85.3105L79.3633 31.7285C79.2357 32.1022 79.0625 32.5033 78.8438 32.9316C78.6341 33.36 78.347 33.7656 77.9824 34.1484C77.627 34.5404 77.1758 34.8594 76.6289 35.1055C76.0911 35.3516 75.4303 35.4746 74.6465 35.4746C74.2728 35.4746 73.9674 35.4518 73.7305 35.4062C73.4935 35.3607 73.2109 35.2969 72.8828 35.2148V32.3301C72.9831 32.3301 73.0879 32.3301 73.1973 32.3301C73.3066 32.3392 73.4115 32.3438 73.5117 32.3438C74.0312 32.3438 74.4551 32.2845 74.7832 32.166C75.1113 32.0475 75.3757 31.8652 75.5762 31.6191C75.7767 31.3822 75.9362 31.0723 76.0547 30.6895L77.1621 27.832ZM75.5215 14.707L78.7344 25.4258L79.2949 29.5957L76.6152 29.8828L71.2969 14.707H75.5215ZM90.8203 17.7695V29.5H86.8691V14.707H90.5742L90.8203 17.7695ZM90.2734 21.584H89.1797C89.1797 20.554 89.3027 19.6061 89.5488 18.7402C89.804 17.8652 90.1732 17.1087 90.6562 16.4707C91.1484 15.8236 91.7546 15.3223 92.4746 14.9668C93.1947 14.6113 94.0286 14.4336 94.9766 14.4336C95.6328 14.4336 96.2344 14.5339 96.7812 14.7344C97.3281 14.9258 97.7975 15.2311 98.1895 15.6504C98.5905 16.0605 98.9004 16.5983 99.1191 17.2637C99.3379 17.9199 99.4473 18.7083 99.4473 19.6289V29.5H95.5098V20.0664C95.5098 19.3919 95.4186 18.8724 95.2363 18.5078C95.054 18.1432 94.7943 17.888 94.457 17.7422C94.1289 17.5964 93.7324 17.5234 93.2676 17.5234C92.7572 17.5234 92.3105 17.6283 91.9277 17.8379C91.554 18.0475 91.2441 18.3392 90.998 18.7129C90.752 19.0775 90.5697 19.5059 90.4512 19.998C90.3327 20.4902 90.2734 21.0189 90.2734 21.584ZM99.0781 21.1328L97.6699 21.3105C97.6699 20.3444 97.7884 19.4466 98.0254 18.6172C98.2715 17.7878 98.6315 17.0586 99.1055 16.4297C99.5885 15.8008 100.186 15.3132 100.896 14.9668C101.607 14.6113 102.428 14.4336 103.357 14.4336C104.068 14.4336 104.715 14.5384 105.299 14.748C105.882 14.9486 106.379 15.2721 106.789 15.7188C107.208 16.1562 107.527 16.7305 107.746 17.4414C107.974 18.1523 108.088 19.0228 108.088 20.0527V29.5H104.137V20.0527C104.137 19.3691 104.046 18.8496 103.863 18.4941C103.69 18.1296 103.435 17.8789 103.098 17.7422C102.77 17.5964 102.378 17.5234 101.922 17.5234C101.448 17.5234 101.033 17.6191 100.678 17.8105C100.322 17.9928 100.026 18.248 99.7891 18.5762C99.5521 18.9043 99.3743 19.2871 99.2559 19.7246C99.1374 20.153 99.0781 20.6224 99.0781 21.1328ZM122.457 9.59375V29.5H118.355V9.59375H122.457ZM130.387 18.0977V21.2969H121.336V18.0977H130.387ZM131.344 9.59375V12.8066H121.336V9.59375H131.344ZM137.633 14.707V29.5H133.682V14.707H137.633ZM133.436 10.8516C133.436 10.2773 133.636 9.80339 134.037 9.42969C134.438 9.05599 134.976 8.86914 135.65 8.86914C136.316 8.86914 136.849 9.05599 137.25 9.42969C137.66 9.80339 137.865 10.2773 137.865 10.8516C137.865 11.4258 137.66 11.8997 137.25 12.2734C136.849 12.6471 136.316 12.834 135.65 12.834C134.976 12.834 134.438 12.6471 134.037 12.2734C133.636 11.8997 133.436 11.4258 133.436 10.8516ZM148.133 14.707V17.4961H139.52V14.707H148.133ZM141.652 11.0566H145.59V25.043C145.59 25.4714 145.645 25.7995 145.754 26.0273C145.872 26.2552 146.046 26.4147 146.273 26.5059C146.501 26.5879 146.788 26.6289 147.135 26.6289C147.381 26.6289 147.6 26.6198 147.791 26.6016C147.992 26.5742 148.16 26.5469 148.297 26.5195L148.311 29.418C147.973 29.5273 147.609 29.6139 147.217 29.6777C146.825 29.7415 146.392 29.7734 145.918 29.7734C145.052 29.7734 144.296 29.6322 143.648 29.3496C143.01 29.0579 142.518 28.5931 142.172 27.9551C141.826 27.3171 141.652 26.4785 141.652 25.4395V11.0566Z" fill="white"/>
</svg>
